<?xml version="1.0" encoding="UTF-8"?>
<svg id="Capa_2" data-name="Capa 2" xmlns="http://www.w3.org/2000/svg" xmlns:xlink="http://www.w3.org/1999/xlink" viewBox="0 0 989.28 996">
  <defs>
    <style>
      .cls-1 {
        filter: url(#drop-shadow-1);
      }

      .cls-2 {
        fill: #39bdf8;
      }

      .cls-2, .cls-3 {
        stroke-width: 0px;
      }

      .cls-3 {
        fill: #033275;
      }
    </style>
    <filter id="drop-shadow-1" filterUnits="userSpaceOnUse">
      <feOffset dx="2" dy="2"/>
      <feGaussianBlur result="blur" stdDeviation="1"/>
      <feFlood flood-color="#000" flood-opacity=".1"/>
      <feComposite in2="blur" operator="in"/>
      <feComposite in="SourceGraphic"/>
    </filter>
  </defs>
  <g id="Capa_1-2" data-name="Capa 1">
    <g class="cls-1">
      <path class="cls-2" d="M989.2,246.73c-1.97-35.56-8.7-70.1-21.17-103.08-19.34-51.12-48.62-94.8-102.75-114.81-51.41-19.01-102.45-11.91-152.58,6.13-56.2,20.22-106.02,52.75-157.25,82.52-66.98,38.94-135.25,74.56-213.11,87.11-29.97,4.83-59.77,5.26-90.05,1.89,72.72-26.36,139.22-61.52,193.21-122.13-57.61-4.39-104.58-29.72-152.93-51.04C248.57,13.92,204.09-4.29,154.54.89,93.54,7.27,45.53,34.27,19.04,91.99,5.94,120.54,1.36,151.28.28,182.49c-2.64,76.18,13.71,149.42,35.97,221.45,47.69,154.3,117.5,298.71,198.34,438.04,19.71,33.96,39.1,68.16,62.75,100.35,4.74-3.46,3.13-6.16,3.09-8.59-.89-60.46-3.22-120.91,1.97-181.34,7.39-85.97,23.93-169.59,63.54-247.15,49.62-97.17,127.96-161.98,228.86-200.88,86.51-33.35,176.95-44.11,268.81-46.63,37.35-1.03,74.67.34,111.96,2.24,10.26.52,14.34-.61,13.64-13.25Z"/>
      <path class="cls-3" d="M625.68,719.61c-.55-11.14-.07-22.34-2.17-33.37-.42-2.22-.95-4.43-1.61-6.64-.51-8.33-1.51-16.55-2.99-24.67-1.48-8.12-3.43-16.13-5.83-24.04-1.6-5.27-3.39-10.49-5.38-15.66-26.48-68.95-78.31-79.18-129.04-25.49-30.97,32.77-49.95,72.57-64.15,114.63-31.1,92.15-36.42,187.14-29.28,283.32.21,2.88-.46,6.53,4.25,8.3.44-3.09.86-5.98,1.26-8.87,12.19-88.41,34.01-174.14,72.36-255.06,14.86-31.35,31.62-61.62,59.33-84.18,21.44-17.46,43.67-16.23,62.6,3.85,6.08,6.45,10.7,13.74,14.81,21.33,4.11,7.59,7.7,15.47,11.73,23.11h0c3.88,12.72,7.76,25.43,11.64,38.15,1.3-.35,2.6-.71,3.9-1.06-.4-2.22-.7-4.45-.93-6.69-.24-2.32-.39-4.64-.51-6.97Z"/>
    </g>
  </g>
</svg>